<svg xmlns:rdf="http://www.w3.org/1999/02/22-rdf-syntax-ns#" xmlns="http://www.w3.org/2000/svg" height="42" width="41.9" version="1.1" xmlns:cc="http://creativecommons.org/ns#" xmlns:dc="http://purl.org/dc/elements/1.1/"><defs><radialGradient id="radialGradient3257" gradientUnits="userSpaceOnUse" cy="418" cx="237" gradientTransform="matrix(0.32453522,0,0,0.32380226,-55.98422,-114.46662)" r="56.5"><stop stop-color="#ecacac" offset="0"/><stop stop-color="#ef1f1f" offset="1"/></radialGradient></defs><metadata><rdf:RDF><cc:Work rdf:about=""><dc:format>image/svg+xml</dc:format><dc:type rdf:resource="http://purl.org/dc/dcmitype/StillImage"/><dc:title/></cc:Work></rdf:RDF></metadata><path fill-rule="nonzero" fill="#bf0000" d="m40.9,21c0,11-8.96,20-19.9,20-11.1,0-20-9-20-20s8.96-20,19.9-20c11.1,0,20,8.96,20,20z"/><path d="m38.2,20.9c0,9.51-7.71,17.2-17.2,17.2-9.51,0-17.2-7.71-17.2-17.2,0-9.51,7.71-17.2,17.2-17.2,9.51,0,17.2,7.71,17.2,17.2z" fill-rule="nonzero" stroke="#FFF" stroke-miterlimit="4" stroke-dasharray="none" stroke-width="2.23230124" fill="url(#radialGradient3257)"/><path fill="#FFF" d="m20.9,23.2-3.99,5.1-4.35,0,6.12-7.5-5.76-7.22,4.46,0,3.61,4.85,3.67-4.85,4.47,0-5.92,7.15,6.08,7.5-4.42,0z"/></svg> 