<svg xmlns:rdf="http://www.w3.org/1999/02/22-rdf-syntax-ns#" xmlns="http://www.w3.org/2000/svg" height="42.5" width="42.4" version="1.1" xmlns:cc="http://creativecommons.org/ns#" xmlns:dc="http://purl.org/dc/elements/1.1/"><defs><radialGradient id="radialGradient3725" gradientUnits="userSpaceOnUse" cy="418" cx="237" gradientTransform="matrix(0.32453405,0,0,0.32380229,-55.734015,-114.21663)" r="56.5"><stop stop-color="#afc6e5" offset="0"/><stop stop-color="#517eb8" offset="1"/></radialGradient></defs><metadata><rdf:RDF><cc:Work rdf:about=""><dc:format>image/svg+xml</dc:format><dc:type rdf:resource="http://purl.org/dc/dcmitype/StillImage"/><dc:title/></cc:Work></rdf:RDF></metadata><path fill-rule="nonzero" fill="#2a538b" d="m41.1,21.2c0,11-8.96,20-19.9,20-11.1,0-20-8.9-20-20,0-11,8.96-20,19.9-20,11,0,19.9,8.96,19.9,20z"/><path d="m38.4,21.1c0,9.51-7.71,17.2-17.2,17.2-9.51,0-17.2-7.71-17.2-17.2,0-9.51,7.71-17.2,17.2-17.2,9.51,0,17.2,7.71,17.2,17.2z" fill-rule="nonzero" stroke="#FFF" stroke-miterlimit="4" stroke-dasharray="none" stroke-width="2.23229742" fill="url(#radialGradient3725)"/><path fill="#FFF" d="m19.2,18.4,3.65,0,0,12.8-3.65,0zm-0.0924-6.32,3.83,0,0,3.39-3.83,0z"/></svg> 