<svg xmlns:rdf="http://www.w3.org/1999/02/22-rdf-syntax-ns#" xmlns="http://www.w3.org/2000/svg" height="42.5" width="42.4" version="1.1" xmlns:cc="http://creativecommons.org/ns#" xmlns:dc="http://purl.org/dc/elements/1.1/"><defs><radialGradient id="radialGradient3373" gradientUnits="userSpaceOnUse" cy="418" cx="237" gradientTransform="matrix(0.32453405,0,0,0.32380229,-55.734014,-114.21663)" r="56.5"><stop stop-color="#ffffa4" offset="0"/><stop stop-color="#ffdc00" offset="1"/></radialGradient></defs><metadata><rdf:RDF><cc:Work rdf:about=""><dc:format>image/svg+xml</dc:format><dc:type rdf:resource="http://purl.org/dc/dcmitype/StillImage"/><dc:title/></cc:Work></rdf:RDF></metadata><path fill-rule="nonzero" fill="#050400" d="m41.1,21.2c0,11-8.96,20-19.9,20-11.1,0-20-8.9-20-20,0-11,8.96-20,19.9-20,11,0,19.9,8.96,19.9,20z"/><path d="m38.4,21.1c0,9.51-7.71,17.2-17.2,17.2-9.51,0-17.2-7.71-17.2-17.2,0-9.51,7.71-17.2,17.2-17.2,9.51,0,17.2,7.71,17.2,17.2z" fill-rule="nonzero" stroke="#FFF" stroke-miterlimit="4" stroke-dasharray="none" stroke-width="2.23229742" fill="url(#radialGradient3373)"/><path fill="#000" d="m27.3,16c-0.000014,0.605-0.0667,1.13-0.2,1.58-0.133,0.446-0.312,0.833-0.538,1.17-0.226,0.333-0.485,0.623-0.778,0.868-0.292,0.246-0.597,0.476-0.917,0.692-0.359,0.246-0.715,0.482-1.08,0.708-0.359,0.226-0.682,0.479-0.965,0.764-0.287,0.282-0.52,0.612-0.701,0.993-0.179,0.379-0.269,0.84-0.269,1.38v0.246h-3.43c-0.0103-0.0924-0.0179-0.208-0.0231-0.346-0.0049-0.138-0.0077-0.249-0.0077-0.331-0.000007-0.771,0.1-1.42,0.3-1.94,0.2-0.528,0.456-0.979,0.771-1.36,0.312-0.379,0.658-0.701,1.03-0.979,0.379-0.272,0.75-0.525,1.12-0.764,0.256-0.174,0.5-0.346,0.729-0.515,0.231-0.169,0.433-0.356,0.608-0.561,0.174-0.205,0.312-0.431,0.415-0.676,0.103-0.246,0.153-0.528,0.153-0.847-0.000007-0.687-0.251-1.24-0.75-1.65-0.502-0.415-1.28-0.623-2.35-0.623-0.792,0-1.56,0.0972-2.33,0.292-0.764,0.194-1.44,0.426-2.02,0.692v-2.97c0.308-0.144,0.653-0.276,1.03-0.4,0.385-0.123,0.785-0.228,1.2-0.315,0.415-0.0875,0.84-0.156,1.28-0.208,0.435-0.0514,0.861-0.0771,1.27-0.0771,1.01,0.00007,1.92,0.121,2.72,0.361,0.799,0.241,1.47,0.587,2.02,1.03,0.549,0.451,0.965,1,1.26,1.64,0.292,0.641,0.438,1.35,0.438,2.15zm-9.2,11.6h4.14v4.1h-4.14z"/></svg> 